<svg width="28" height="30" viewBox="0 0 28 30" fill="none" xmlns="http://www.w3.org/2000/svg">
<path d="M19.4804 3.11726C22.4609 4.38518 24.9096 6.64732 26.4091 9.51824C27.9087 12.3892 28.3665 15.6912 27.7044 18.8618C27.0423 22.0324 25.3013 24.8753 22.7781 26.9062C20.2549 28.937 17.1056 30.0302 13.8668 29.9994C10.6279 29.9685 7.5 28.8157 5.0159 26.7371C2.53181 24.6586 0.845266 21.7831 0.243635 18.6005C-0.357997 15.4179 0.162511 12.1251 1.71647 9.28324C3.27043 6.44138 5.76169 4.22625 8.76577 3.01528L9.72982 5.40683C7.27904 6.39476 5.24662 8.2019 3.97887 10.5203C2.71113 12.8388 2.28649 15.5251 2.77731 18.1215C3.26813 20.7179 4.64404 23.0639 6.67061 24.7595C8.69718 26.4552 11.249 27.3958 13.8913 27.4209C16.5336 27.4461 19.1029 26.5543 21.1613 24.8975C23.2198 23.2406 24.6401 20.9213 25.1803 18.3347C25.7204 15.7481 25.347 13.0542 24.1236 10.7121C22.9002 8.36992 20.9026 6.52442 18.471 5.49002L19.4804 3.11726Z" fill="white"/>
<path d="M13 1C13 0.447715 13.4477 0 14 0C14.5523 0 15 0.447715 15 1V15C15 15.5523 14.5523 16 14 16C13.4477 16 13 15.5523 13 15V1Z" fill="white"/>
<path d="M13 1C13 0.447715 13.4477 0 14 0C14.5523 0 15 0.447715 15 1V15C15 15.5523 14.5523 16 14 16C13.4477 16 13 15.5523 13 15V1Z" stroke="white"/>
</svg>
