<svg width="48" height="48" viewBox="0 0 48 48" fill="none" xmlns="http://www.w3.org/2000/svg">
<circle cx="24" cy="24" r="23.25" fill="#FF0000" fill-opacity="0.85" stroke="white" stroke-width="1.5" stroke-miterlimit="2.61313"/>
<path d="M23.134 11.5C23.5189 10.8333 24.4811 10.8333 24.866 11.5L36.9904 32.5C37.3753 33.1667 36.8942 34 36.1244 34H11.8756C11.1058 34 10.6247 33.1667 11.0096 32.5L23.134 11.5Z" fill="#FFB800" fill-opacity="0.85"/>
<path d="M23.567 11.75C23.7594 11.4167 24.2406 11.4167 24.433 11.75L36.5574 32.75C36.7498 33.0833 36.5093 33.5 36.1244 33.5H11.8756C11.4907 33.5 11.2502 33.0833 11.4426 32.75L23.567 11.75Z" stroke="white" stroke-opacity="0.85"/>
<path d="M25.1852 18.0909L24.9775 25.7294H23.0279L22.8148 18.0909H25.1852ZM24.0027 29.1385C23.6511 29.1385 23.3493 29.0142 23.0971 28.7656C22.845 28.5135 22.7207 28.2116 22.7243 27.8601C22.7207 27.5121 22.845 27.2138 23.0971 26.9652C23.3493 26.7166 23.6511 26.5923 24.0027 26.5923C24.34 26.5923 24.6365 26.7166 24.8922 26.9652C25.1479 27.2138 25.2775 27.5121 25.2811 27.8601C25.2775 28.0945 25.2154 28.3093 25.0946 28.5046C24.9775 28.6964 24.823 28.8509 24.6312 28.968C24.4395 29.0817 24.2299 29.1385 24.0027 29.1385Z" fill="white" fill-opacity="0.85"/>
</svg>
