<svg width="75" height="75" viewBox="0 0 75 75" fill="none" xmlns="http://www.w3.org/2000/svg">
<circle cx="37.5" cy="37.5" r="37" fill="#FF1E1E" stroke="white"/>
<path d="M47.2864 14.4951C52.6088 16.7592 56.9813 20.7988 59.6592 25.9254C62.337 31.0521 63.1544 36.9486 61.9721 42.6104C60.7898 48.2721 57.6809 53.3488 53.1752 56.9753C48.6695 60.6019 43.0457 62.5539 37.2621 62.4989C31.4785 62.4438 25.8929 60.3851 21.457 56.6735C17.0211 52.9618 14.0094 47.8269 12.9351 42.1437C11.8607 36.4605 12.7902 30.5805 15.5651 25.5058C18.34 20.431 22.7887 16.4754 28.1532 14.313L29.8747 18.5836C25.4983 20.3478 21.869 23.5748 19.6051 27.7149C17.3413 31.855 16.583 36.6519 17.4595 41.2884C18.3359 45.9249 20.7929 50.114 24.4118 53.142C28.0307 56.1701 32.5875 57.8496 37.3059 57.8945C42.0243 57.9394 46.6123 56.3469 50.2881 53.3883C53.964 50.4297 56.5002 46.2881 57.4648 41.6691C58.4293 37.0502 57.7625 32.2397 55.5779 28.0573C53.3932 23.8748 49.826 20.5793 45.484 18.7322L47.2864 14.4951Z" fill="white"/>
<path d="M35.7143 10.7143C35.7143 9.72808 36.5138 8.92859 37.5 8.92859C38.4862 8.92859 39.2857 9.72808 39.2857 10.7143V35.7143C39.2857 36.7005 38.4862 37.5 37.5 37.5C36.5138 37.5 35.7143 36.7005 35.7143 35.7143V10.7143Z" fill="white"/>
<path d="M35.7143 10.7143C35.7143 9.72808 36.5138 8.92859 37.5 8.92859C38.4862 8.92859 39.2857 9.72808 39.2857 10.7143V35.7143C39.2857 36.7005 38.4862 37.5 37.5 37.5C36.5138 37.5 35.7143 36.7005 35.7143 35.7143V10.7143Z" stroke="white"/>
</svg>
