<svg width="32" height="32" viewBox="0 0 32 32" fill="none" xmlns="http://www.w3.org/2000/svg">
<path d="M15.134 1.5C15.5189 0.833332 16.4811 0.833333 16.866 1.5L28.9904 22.5C29.3753 23.1667 28.8942 24 28.1244 24H3.87564C3.10584 24 2.62472 23.1667 3.00962 22.5L15.134 1.5Z" fill="#FFB800" fill-opacity="0.85"/>
<path d="M15.567 1.75C15.7594 1.41667 16.2406 1.41667 16.433 1.75L28.5574 22.75C28.7498 23.0833 28.5093 23.5 28.1244 23.5H3.87564C3.49074 23.5 3.25018 23.0833 3.44263 22.75L15.567 1.75Z" stroke="white" stroke-opacity="0.85"/>
<path d="M17.1852 8.09091L16.9775 15.7294H15.0279L14.8148 8.09091H17.1852ZM16.0027 19.1385C15.6511 19.1385 15.3493 19.0142 15.0971 18.7656C14.845 18.5135 14.7207 18.2116 14.7243 17.8601C14.7207 17.5121 14.845 17.2138 15.0971 16.9652C15.3493 16.7166 15.6511 16.5923 16.0027 16.5923C16.34 16.5923 16.6365 16.7166 16.8922 16.9652C17.1479 17.2138 17.2775 17.5121 17.2811 17.8601C17.2775 18.0945 17.2154 18.3093 17.0946 18.5046C16.9775 18.6964 16.823 18.8509 16.6312 18.968C16.4395 19.0817 16.2299 19.1385 16.0027 19.1385Z" fill="white" fill-opacity="0.85"/>
</svg>
